<svg id="Layer_1" enable-background="new 0 0 512 512" height="512" viewBox="0 0 512 512" width="512" xmlns="http://www.w3.org/2000/svg" xmlns:xlink="http://www.w3.org/1999/xlink"><linearGradient id="SVGID_1_" gradientUnits="userSpaceOnUse" x1="256" x2="256" y1="0" y2="512"><stop offset="0" stop-color="#8df49b"/><stop offset="1" stop-color="#589cf9"/></linearGradient><path d="m512 326v-140h-52.672c-2.852-8.286-6.212-16.394-10.062-24.272l37.25-37.25-98.995-98.995-37.249 37.25c-7.88-3.849-15.986-7.21-24.272-10.062v-52.671h-140v52.671c-8.286 2.852-16.393 6.213-24.272 10.062l-37.249-37.25-98.995 98.995 37.25 37.25c-3.85 7.879-7.21 15.986-10.062 24.272h-52.672v140h52.671c2.853 8.287 6.213 16.393 10.062 24.272l-37.25 37.25 98.995 98.995 37.249-37.25c7.88 3.849 15.987 7.209 24.272 10.062v52.671h140v-52.671c8.285-2.852 16.393-6.213 24.272-10.062l37.249 37.25 98.995-98.995-37.25-37.25c3.85-7.879 7.21-15.986 10.062-24.272zm-82.052 61.522-42.427 42.426-30.87-30.871c-20.706 14.609-44.707 24.839-70.651 29.34v43.583h-60v-43.582c-25.944-4.501-49.946-14.731-70.651-29.34l-30.87 30.871-42.427-42.426 30.871-30.871c-14.61-20.706-24.84-44.708-29.34-70.652h-43.583v-60h43.583c4.501-25.944 14.731-49.946 29.34-70.651l-30.871-30.871 42.427-42.426 30.87 30.871c20.706-14.609 44.708-24.839 70.651-29.34v-43.583h60v43.583c25.944 4.501 49.946 14.731 70.651 29.34l30.87-30.871 42.427 42.426-30.871 30.871c14.609 20.706 24.839 44.708 29.34 70.651h43.583v60h-43.583c-4.501 25.944-14.731 49.946-29.34 70.651zm-173.948-261.522c-71.683 0-130 58.318-130 130s58.317 130 130 130 130-58.318 130-130-58.317-130-130-130zm0 220c-49.626 0-90-40.374-90-90s40.374-90 90-90 90 40.374 90 90-40.374 90-90 90z" fill="url(#SVGID_1_)"/></svg>